<svg xmlns="http://www.w3.org/2000/svg" xmlns:xlink="http://www.w3.org/1999/xlink" width="500" zoomAndPan="magnify" viewBox="0 0 375 149.999998" height="200" preserveAspectRatio="xMidYMid meet" version="1.0"><defs><g/></defs><g fill="#ffffff" fill-opacity="1"><g transform="translate(59.186066, 111.355691)"><g><path d="M 22.6875 0 C 20.914062 0 19.523438 -0.425781 18.515625 -1.28125 C 17.515625 -2.132812 16.785156 -3.242188 16.328125 -4.609375 C 15.867188 -5.984375 15.609375 -7.429688 15.546875 -8.953125 C 15.484375 -10.484375 15.484375 -11.890625 15.546875 -13.171875 C 15.734375 -18.285156 16.007812 -23.375 16.375 -28.4375 C 16.738281 -33.5 16.828125 -38.625 16.640625 -43.8125 C 14.992188 -43.75 13.207031 -43.703125 11.28125 -43.671875 C 9.363281 -43.640625 7.566406 -43.941406 5.890625 -44.578125 C 4.222656 -45.222656 2.960938 -46.429688 2.109375 -48.203125 C 1.253906 -49.960938 1.113281 -51.785156 1.6875 -53.671875 C 2.269531 -55.566406 3.472656 -56.910156 5.296875 -57.703125 C 6.703125 -58.378906 8.457031 -58.640625 10.5625 -58.484375 C 12.664062 -58.328125 14.800781 -58.082031 16.96875 -57.75 C 19.132812 -57.414062 20.976562 -57.1875 22.5 -57.0625 C 25.125 -56.945312 27.894531 -56.914062 30.8125 -56.96875 C 33.738281 -57.03125 36.425781 -56.484375 38.875 -55.328125 C 39.96875 -54.835938 40.894531 -54.070312 41.65625 -53.03125 C 42.414062 -52 42.859375 -50.875 42.984375 -49.65625 C 43.109375 -48.4375 42.742188 -47.28125 41.890625 -46.1875 C 41.097656 -45.144531 39.890625 -44.457031 38.265625 -44.125 C 36.648438 -43.789062 34.972656 -43.640625 33.234375 -43.671875 C 31.503906 -43.703125 30.03125 -43.71875 28.8125 -43.71875 C 28.988281 -42.5 29.289062 -40.59375 29.71875 -38 C 30.144531 -35.40625 30.554688 -32.476562 30.953125 -29.21875 C 31.347656 -25.957031 31.578125 -22.632812 31.640625 -19.25 C 31.703125 -15.863281 31.488281 -12.722656 31 -9.828125 C 30.507812 -6.929688 29.609375 -4.582031 28.296875 -2.78125 C 26.992188 -0.988281 25.125 -0.0625 22.6875 0 Z M 22.6875 0 "/></g></g></g><g fill="#ffffff" fill-opacity="1"><g transform="translate(96.407331, 111.355691)"><g><path d="M 49.296875 -3.109375 C 47.285156 -1.160156 45.457031 -0.125 43.8125 0 C 42.164062 0.125 40.6875 -0.40625 39.375 -1.59375 C 38.0625 -2.789062 36.914062 -4.363281 35.9375 -6.3125 C 34.96875 -8.257812 34.128906 -10.34375 33.421875 -12.5625 C 32.722656 -14.789062 32.160156 -16.894531 31.734375 -18.875 C 31.304688 -20.863281 30.972656 -22.40625 30.734375 -23.5 C 30.242188 -23.382812 29.40625 -23.234375 28.21875 -23.046875 C 27.03125 -22.859375 25.882812 -22.644531 24.78125 -22.40625 C 23.6875 -22.164062 22.957031 -21.859375 22.59375 -21.484375 C 22.164062 -21.054688 21.921875 -20.21875 21.859375 -18.96875 C 21.796875 -17.726562 21.703125 -16.800781 21.578125 -16.1875 C 21.148438 -14.414062 20.675781 -12.613281 20.15625 -10.78125 C 19.644531 -8.957031 18.78125 -7.316406 17.5625 -5.859375 C 15.976562 -3.960938 14.160156 -2.847656 12.109375 -2.515625 C 10.066406 -2.179688 8.160156 -2.5625 6.390625 -3.65625 C 4.628906 -4.75 3.320312 -6.425781 2.46875 -8.6875 C 1.550781 -11.1875 1.179688 -13.957031 1.359375 -17 C 1.546875 -20.050781 1.898438 -23.113281 2.421875 -26.1875 C 2.941406 -29.269531 3.289062 -32.09375 3.46875 -34.65625 C 3.78125 -38.863281 3.84375 -43.175781 3.65625 -47.59375 C 3.476562 -52.019531 3.722656 -56.273438 4.390625 -60.359375 C 4.816406 -62.921875 5.851562 -64.945312 7.5 -66.4375 C 9.144531 -67.9375 11.203125 -68.988281 13.671875 -69.59375 C 16.140625 -70.207031 18.804688 -70.5 21.671875 -70.46875 C 24.535156 -70.4375 27.382812 -70.144531 30.21875 -69.59375 C 33.0625 -69.039062 35.671875 -68.320312 38.046875 -67.4375 C 40.421875 -66.5625 42.367188 -65.632812 43.890625 -64.65625 C 47.128906 -62.582031 49.445312 -60.144531 50.84375 -57.34375 C 52.25 -54.539062 52.875 -51.613281 52.71875 -48.5625 C 52.570312 -45.507812 51.734375 -42.503906 50.203125 -39.546875 C 48.679688 -36.597656 46.640625 -33.929688 44.078125 -31.546875 C 45.171875 -29.835938 46.40625 -27.765625 47.78125 -25.328125 C 49.15625 -22.890625 50.296875 -20.3125 51.203125 -17.59375 C 52.117188 -14.882812 52.515625 -12.265625 52.390625 -9.734375 C 52.273438 -7.203125 51.242188 -4.992188 49.296875 -3.109375 Z M 21.125 -34.9375 C 22.894531 -35.601562 24.632812 -36.332031 26.34375 -37.125 C 28.050781 -37.914062 29.664062 -38.863281 31.1875 -39.96875 C 33.195312 -41.363281 34.320312 -42.75 34.5625 -44.125 C 34.8125 -45.5 34.476562 -46.75 33.5625 -47.875 C 32.644531 -49 31.394531 -49.878906 29.8125 -50.515625 C 28.226562 -51.160156 26.582031 -51.425781 24.875 -51.3125 C 23.53125 -51.25 22.414062 -51.125 21.53125 -50.9375 C 20.65625 -50.757812 20.03125 -50.0625 19.65625 -48.84375 C 19.289062 -47.738281 19.210938 -46.316406 19.421875 -44.578125 C 19.640625 -42.847656 19.945312 -41.113281 20.34375 -39.375 C 20.738281 -37.632812 21 -36.15625 21.125 -34.9375 Z M 21.125 -34.9375 "/></g></g></g><g fill="#ffffff" fill-opacity="1"><g transform="translate(144.694415, 111.355691)"><g><path d="M 12.984375 -1.921875 C 10.484375 -3.203125 8.5625 -4.9375 7.21875 -7.125 C 5.882812 -9.320312 4.910156 -11.742188 4.296875 -14.390625 C 3.691406 -17.046875 3.265625 -19.757812 3.015625 -22.53125 C 2.773438 -25.3125 2.5 -27.890625 2.1875 -30.265625 C 2.007812 -31.859375 1.828125 -33.796875 1.640625 -36.078125 C 1.460938 -38.359375 1.414062 -40.734375 1.5 -43.203125 C 1.59375 -45.679688 1.957031 -48 2.59375 -50.15625 C 3.238281 -52.320312 4.289062 -54.078125 5.75 -55.421875 C 7.21875 -56.765625 9.234375 -57.4375 11.796875 -57.4375 C 13.804688 -57.4375 15.40625 -56.898438 16.59375 -55.828125 C 17.78125 -54.765625 18.648438 -53.394531 19.203125 -51.71875 C 19.753906 -50.039062 20.101562 -48.238281 20.25 -46.3125 C 20.40625 -44.394531 20.453125 -42.519531 20.390625 -40.6875 C 20.328125 -38.863281 20.269531 -37.28125 20.21875 -35.9375 C 20.15625 -33.132812 20.078125 -30.117188 19.984375 -26.890625 C 19.890625 -23.660156 20.363281 -20.703125 21.40625 -18.015625 C 22.070312 -16.367188 22.953125 -15.148438 24.046875 -14.359375 C 25.148438 -13.566406 26.28125 -13.335938 27.4375 -13.671875 C 28.59375 -14.003906 29.597656 -15.023438 30.453125 -16.734375 C 31.609375 -19.054688 32.265625 -21.570312 32.421875 -24.28125 C 32.578125 -26.988281 32.65625 -29.59375 32.65625 -32.09375 C 32.65625 -33.800781 32.515625 -35.628906 32.234375 -37.578125 C 31.960938 -39.535156 31.765625 -41.488281 31.640625 -43.4375 C 31.515625 -45.382812 31.695312 -47.15625 32.1875 -48.75 C 32.675781 -50.207031 33.4375 -51.4375 34.46875 -52.4375 C 35.507812 -53.445312 36.703125 -54.03125 38.046875 -54.1875 C 39.390625 -54.34375 40.726562 -53.835938 42.0625 -52.671875 C 43.164062 -51.765625 43.929688 -50.625 44.359375 -49.25 C 44.785156 -47.875 45.023438 -46.4375 45.078125 -44.9375 C 45.140625 -43.445312 45.144531 -42.0625 45.09375 -40.78125 C 45.144531 -38.28125 45.171875 -35.488281 45.171875 -32.40625 C 45.171875 -29.332031 45.019531 -26.195312 44.71875 -23 C 44.414062 -19.800781 43.820312 -16.78125 42.9375 -13.9375 C 42.050781 -11.101562 40.753906 -8.679688 39.046875 -6.671875 C 37.703125 -5.085938 35.945312 -3.757812 33.78125 -2.6875 C 31.625 -1.625 29.296875 -0.878906 26.796875 -0.453125 C 24.296875 -0.0234375 21.828125 0.0820312 19.390625 -0.125 C 16.953125 -0.34375 14.816406 -0.941406 12.984375 -1.921875 Z M 12.984375 -1.921875 "/></g></g></g><g fill="#ffffff" fill-opacity="1"><g transform="translate(185.573795, 111.355691)"><g><path d="M 25.96875 -2.5625 C 25.238281 -1.15625 24.050781 -0.269531 22.40625 0.09375 C 20.757812 0.457031 19.050781 0.289062 17.28125 -0.40625 C 15.507812 -1.113281 14.046875 -2.320312 12.890625 -4.03125 C 11.796875 -5.675781 11.125 -7.671875 10.875 -10.015625 C 10.632812 -12.359375 10.585938 -14.828125 10.734375 -17.421875 C 10.890625 -20.015625 11.054688 -22.53125 11.234375 -24.96875 C 11.421875 -27.40625 11.425781 -29.539062 11.25 -31.375 C 10.945312 -33.8125 10.140625 -36.140625 8.828125 -38.359375 C 7.515625 -40.585938 6.15625 -42.8125 4.75 -45.03125 C 3.351562 -47.257812 2.347656 -49.625 1.734375 -52.125 C 1.191406 -54.382812 1.269531 -56.457031 1.96875 -58.34375 C 2.664062 -60.238281 3.882812 -61.550781 5.625 -62.28125 C 7.363281 -63.007812 9.453125 -62.765625 11.890625 -61.546875 C 14.023438 -60.515625 15.640625 -58.988281 16.734375 -56.96875 C 17.828125 -54.957031 18.722656 -52.804688 19.421875 -50.515625 C 20.128906 -48.234375 20.910156 -46.117188 21.765625 -44.171875 C 22.378906 -45.203125 23.082031 -46.507812 23.875 -48.09375 C 24.664062 -49.6875 25.53125 -51.335938 26.46875 -53.046875 C 27.414062 -54.753906 28.46875 -56.257812 29.625 -57.5625 C 30.789062 -58.875 32.054688 -59.789062 33.421875 -60.3125 C 34.796875 -60.832031 36.304688 -60.695312 37.953125 -59.90625 C 39.296875 -59.289062 40.148438 -58.40625 40.515625 -57.25 C 40.878906 -56.09375 40.953125 -54.8125 40.734375 -53.40625 C 40.523438 -52.007812 40.160156 -50.640625 39.640625 -49.296875 C 39.128906 -47.953125 38.660156 -46.820312 38.234375 -45.90625 C 37.429688 -44.195312 36.507812 -42.535156 35.46875 -40.921875 C 34.4375 -39.304688 33.40625 -37.707031 32.375 -36.125 C 31.28125 -34.539062 30.503906 -33.210938 30.046875 -32.140625 C 29.585938 -31.078125 29.34375 -29.953125 29.3125 -28.765625 C 29.28125 -27.578125 29.382812 -26.003906 29.625 -24.046875 C 29.875 -20.941406 30.023438 -18.0625 30.078125 -15.40625 C 30.140625 -12.757812 29.878906 -10.351562 29.296875 -8.1875 C 28.722656 -6.019531 27.613281 -4.144531 25.96875 -2.5625 Z M 25.96875 -2.5625 "/></g></g></g><g fill="#ffffff" fill-opacity="1"><g transform="translate(220.691634, 111.355691)"><g><path d="M 45.359375 0 L 8.875 0 L 8.875 -65.296875 L 45.359375 -65.296875 L 45.359375 -58.078125 L 17.109375 -58.078125 L 17.109375 -37.671875 L 43.71875 -37.671875 L 43.71875 -30.546875 L 17.109375 -30.546875 L 17.109375 -7.21875 L 45.359375 -7.21875 Z M 27.34375 16.09375 C 26.0625 16.09375 24.945312 15.664062 24 14.8125 C 23.0625 13.957031 22.59375 12.675781 22.59375 10.96875 C 22.59375 9.207031 23.0625 7.914062 24 7.09375 C 24.945312 6.269531 26.0625 5.859375 27.34375 5.859375 C 28.625 5.859375 29.734375 6.269531 30.671875 7.09375 C 31.617188 7.914062 32.09375 9.207031 32.09375 10.96875 C 32.09375 12.675781 31.617188 13.957031 30.671875 14.8125 C 29.734375 15.664062 28.625 16.09375 27.34375 16.09375 Z M 32.109375 -86.328125 C 32.835938 -84.992188 33.882812 -83.488281 35.25 -81.8125 C 36.625 -80.132812 38.054688 -78.488281 39.546875 -76.875 C 41.046875 -75.257812 42.375 -73.867188 43.53125 -72.703125 L 43.53125 -71.703125 L 37.875 -71.703125 C 36.28125 -72.679688 34.628906 -73.882812 32.921875 -75.3125 C 31.222656 -76.75 29.550781 -78.289062 27.90625 -79.9375 C 26.257812 -78.289062 24.609375 -76.75 22.953125 -75.3125 C 21.304688 -73.882812 19.691406 -72.679688 18.109375 -71.703125 L 12.625 -71.703125 L 12.625 -72.703125 C 13.71875 -73.867188 14.992188 -75.257812 16.453125 -76.875 C 17.921875 -78.488281 19.328125 -80.132812 20.671875 -81.8125 C 22.015625 -83.488281 23.082031 -84.992188 23.875 -86.328125 Z M 32.109375 -86.328125 "/></g></g></g><g fill="#ffffff" fill-opacity="1"><g transform="translate(265.777866, 111.355691)"><g><path d="M 4.296875 -1.734375 C 3.265625 -2.890625 2.535156 -4.382812 2.109375 -6.21875 C 1.679688 -8.050781 1.453125 -10.015625 1.421875 -12.109375 C 1.390625 -14.210938 1.445312 -16.253906 1.59375 -18.234375 C 1.75 -20.222656 1.859375 -21.921875 1.921875 -23.328125 C 2.046875 -24.972656 2.109375 -26.96875 2.109375 -29.3125 C 2.109375 -31.65625 2.179688 -34.140625 2.328125 -36.765625 C 2.484375 -39.390625 2.804688 -41.953125 3.296875 -44.453125 C 3.785156 -46.953125 4.53125 -49.144531 5.53125 -51.03125 C 6.539062 -52.914062 7.898438 -54.285156 9.609375 -55.140625 C 11.429688 -56.054688 13.238281 -56.300781 15.03125 -55.875 C 16.832031 -55.445312 18.492188 -54.640625 20.015625 -53.453125 C 21.546875 -52.265625 22.769531 -50.910156 23.6875 -49.390625 C 25.457031 -46.578125 26.96875 -43.675781 28.21875 -40.6875 C 29.46875 -37.707031 31.003906 -34.785156 32.828125 -31.921875 C 32.765625 -33.378906 32.625 -35.035156 32.40625 -36.890625 C 32.195312 -38.753906 32.09375 -40.644531 32.09375 -42.5625 C 32.09375 -44.488281 32.320312 -46.320312 32.78125 -48.0625 C 33.238281 -49.800781 34.046875 -51.28125 35.203125 -52.5 C 36.734375 -54.082031 38.347656 -54.890625 40.046875 -54.921875 C 41.753906 -54.953125 43.28125 -54.398438 44.625 -53.265625 C 45.96875 -52.140625 46.757812 -50.539062 47 -48.46875 C 47.425781 -45.664062 47.804688 -42.460938 48.140625 -38.859375 C 48.484375 -35.265625 48.640625 -31.578125 48.609375 -27.796875 C 48.578125 -24.015625 48.285156 -20.351562 47.734375 -16.8125 C 47.191406 -13.28125 46.28125 -10.144531 45 -7.40625 C 43.59375 -4.414062 42.050781 -2.660156 40.375 -2.140625 C 38.695312 -1.628906 36.941406 -1.953125 35.109375 -3.109375 C 33.285156 -4.265625 31.488281 -5.941406 29.71875 -8.140625 C 27.945312 -10.335938 26.285156 -12.6875 24.734375 -15.1875 C 23.179688 -17.6875 21.8125 -20 20.625 -22.125 C 19.4375 -24.257812 18.535156 -25.847656 17.921875 -26.890625 C 17.796875 -26.273438 17.566406 -25.019531 17.234375 -23.125 C 16.898438 -21.238281 16.457031 -19.078125 15.90625 -16.640625 C 15.363281 -14.203125 14.722656 -11.796875 13.984375 -9.421875 C 13.253906 -7.046875 12.414062 -5.003906 11.46875 -3.296875 C 10.53125 -1.585938 9.46875 -0.519531 8.28125 -0.09375 C 7.09375 0.332031 5.765625 -0.210938 4.296875 -1.734375 Z M 4.296875 -1.734375 "/></g></g></g><path stroke-linecap="butt" transform="matrix(0.397046, 0.636282, -0.636282, 0.397046, 180.265262, 2.978907)" fill="none" stroke-linejoin="miter" d="M -0.00113119 0.999411 L 36.379994 0.998901 " stroke="#e4e2dd" stroke-width="2" stroke-opacity="1" stroke-miterlimit="4"/><path stroke-linecap="butt" transform="matrix(-0.70873, 0.24536, -0.24536, -0.70873, 198.85376, 12.902329)" fill="none" stroke-linejoin="miter" d="M -0.000481116 0.997416 L 36.381296 0.99863 " stroke="#e4e2dd" stroke-width="2" stroke-opacity="1" stroke-miterlimit="4"/><path stroke-linecap="butt" transform="matrix(-0.263814, 0.70207, -0.70207, -0.263814, 193.068772, 3.903355)" fill="none" stroke-linejoin="miter" d="M 0.00112488 0.998886 L 42.59863 0.999568 " stroke="#e4e2dd" stroke-width="2" stroke-opacity="1" stroke-miterlimit="4"/></svg>